<?xml version="1.0" encoding="UTF-8"?>
<svg viewBox="0 0 1269.2003 420.51254" xmlns="http://www.w3.org/2000/svg" xmlns:xlink="http://www.w3.org/1999/xlink">
 <defs>
  <filter id="h" x="-.06875" y="-.15424" width="1.1375" height="1.3085">
   <feGaussianBlur stdDeviation="14.5275"/>
  </filter>
  <filter id="i" x="-.051" y="-.19547" width="1.102" height="1.3909">
   <feGaussianBlur stdDeviation="8.89984"/>
  </filter>
  <filter id="g" x="-.18311" y="-.15565" width="1.3662" height="1.3113">
   <feGaussianBlur stdDeviation="3.60291"/>
  </filter>
  <linearGradient id="f">
   <stop stop-color="#83c1ef" offset="0"/>
   <stop stop-color="#729ec0" stop-opacity="0" offset="1"/>
  </linearGradient>
  <linearGradient id="a">
   <stop stop-color="#69f931" offset="0"/>
   <stop stop-color="#f1fee4" stop-opacity=".04348" offset="1"/>
  </linearGradient>
  <linearGradient id="e" x2="0" y1="216.6" y2="659.36" gradientUnits="userSpaceOnUse">
   <stop stop-color="#588cb5" offset="0"/>
   <stop stop-color="#438cc4" offset="1"/>
  </linearGradient>
  <linearGradient id="p" x1="889.05" x2="927.72" y1="146.26" y2="168.13" gradientUnits="userSpaceOnUse" xlink:href="#a"/>
  <linearGradient id="o" x1="864.24" x2="978.47" y1="222.25" y2="281.28" gradientUnits="userSpaceOnUse" xlink:href="#a"/>
  <linearGradient id="n" x1="967.71" x2="995.14" y1="72.596" y2="104.86" gradientUnits="userSpaceOnUse" xlink:href="#a"/>
  <radialGradient id="d" cx="359.44" cy="404.75" r="211.31" gradientTransform="matrix(1.1556 -6.1141e-5 0 .57666 -57.463 53.393)" gradientUnits="userSpaceOnUse">
   <stop stop-color="#e2ebf3" stop-opacity=".86087" offset="0"/>
   <stop stop-color="#e2ebf3" stop-opacity=".22745" offset="1"/>
  </radialGradient>
  <radialGradient id="c" cx="351.84" cy="610.38" r="174.5" gradientTransform="matrix(1.2586 0 0 .24468 -90.988 461.03)" gradientUnits="userSpaceOnUse">
   <stop stop-color="#fff" offset="0"/>
   <stop stop-color="#fff" stop-opacity="0" offset="1"/>
  </radialGradient>
  <radialGradient id="b" cx="348" cy="352" r="322.95" gradientUnits="userSpaceOnUse">
   <stop offset="0"/>
   <stop offset=".7"/>
   <stop stop-color="#0093ff" stop-opacity="0" offset="1"/>
  </radialGradient>
  <radialGradient id="m" cx="303.89" cy="416.94" r="224.11" gradientTransform="matrix(.93426 0 0 1 22.813 -2.801e-7)" gradientUnits="userSpaceOnUse" xlink:href="#f"/>
  <radialGradient id="k" cx="305.9" cy="218.3" r="86.902" gradientTransform="matrix(.1007 1.0897 -2.0556 .18997 721.02 -132.84)" gradientUnits="userSpaceOnUse" xlink:href="#a"/>
  <radialGradient id="j" cx="415.86" cy="428.09" r="82.42" gradientTransform="matrix(-.36185 1.5532 -2.5862 -.60254 1686.8 53.041)" gradientUnits="userSpaceOnUse" xlink:href="#a"/>
  <radialGradient id="l" cx="303.89" cy="416.94" r="224.11" gradientTransform="matrix(.93426 0 0 1 22.813 -2.801e-7)" gradientUnits="userSpaceOnUse" xlink:href="#f"/>
 </defs>
 <g transform="translate(482.31 -184.36)">
  <g transform="translate(-13.749)">
   <path transform="matrix(11.456 2.8512 -2.8512 11.456 -2647 -4256.4)" d="m359.24 316.84c0 3.5566-2.8832 6.4397-6.4397 6.4397s-6.4397-2.8832-6.4397-6.4397 2.8832-6.4397 6.4397-6.4397 6.4397 2.8832 6.4397 6.4397z" stroke="#000" stroke-linecap="round" stroke-width="1.2"/>
   <path transform="matrix(9.9513 2.4767 -2.4767 9.9513 -2259.8 -3663.1)" d="m370.85 319.88c0 8.9263-7.3492 16.162-16.415 16.162s-16.415-7.2362-16.415-16.162 7.3492-16.162 16.415-16.162 16.415 7.2362 16.415 16.162z" fill="none" stroke="#000" stroke-linecap="round" stroke-width="1.2"/>
   <path transform="matrix(.81136 0 0 .8572 204.56 25.882)" d="m564.38 441.46c0 123.77-100.34 224.11-224.11 224.11s-224.11-100.34-224.11-224.11 100.34-224.11 224.11-224.11 224.11 100.34 224.11 224.11z" fill="url(#e)"/>
   <path transform="matrix(.81136 0 0 .8572 204.56 25.882)" d="m564.38 441.46c0 123.77-100.34 224.11-224.11 224.11s-224.11-100.34-224.11-224.11 100.34-224.11 224.11-224.11 224.11 100.34 224.11 224.11z" fill="url(#l)"/>
   <path transform="matrix(.81136 0 0 .8572 195.18 24.318)" d="m351.84 274.56c-109.3 0-211.74 84.152-207.34 188.38 55.426-33.937 125.7-54.719 207.31-54.719 81.61 0 151.89 20.786 207.31 54.719 5.0043-103-97.983-188.38-207.28-188.38z" fill="#fff" fill-opacity=".40273" filter="url(#h)"/>
   <path transform="matrix(.81136 0 0 .8572 195.18 24.318)" d="m177.34 564.84c38.421 55.056 102.22 91.062 174.5 91.062 72.287 2e-5 136.09-35.994 174.5-91.062-47.253 30.092-108.07 48.188-174.5 48.188-66.415-1e-5 -127.24-18.103-174.5-48.188z" fill="url(#c)" filter="url(#i)"/>
   <path transform="matrix(.81136 0 0 .8572 195.18 24.318)" d="m351.84 234.56c-109.3 0-199.27 82.322-211.34 188.38 55.426-33.937 129.7-54.719 211.31-54.719 81.61 0 155.89 20.786 211.31 54.719-12.071-106.05-101.98-188.38-211.28-188.38z" fill="url(#d)"/>
   <path transform="translate(-482.31 184.36)" d="m906.12 107.75-2.375 0.78125-2.0312 2.75 2.7188 5.7812 4.4375 0.59375 3.7188-1.5s1.1562-3.8223 1.1562-4.3125-1.8621-2.2328-2.1562-2.625-5.4688-1.4688-5.4688-1.4688zm-67.75 3.9062-1.9688 2.3438-2.3438-0.375-3.3438-0.28125-1.375 2.4375 1.6875 2.0625s-1.2825 4.4074-1.9688 5.0938 1.4688 4.5141 1.4688 4.9062 3.3438 0.5 3.3438 0.5l3.125-4.625s-0.40625-3.8266-0.40625-4.2188 2.6562-1.375 2.6562-1.375l-0.1875-4.9062 0.0937-0.6875-0.78125-0.875zm63.219 20.594-1.8438 3.9375s1.0668 5.3805 0.96875 5.9688 1 4.7188 1 4.7188l-2.375 0.1875s-1.1562-1.7641-1.1562-2.1562-0.90625-3.7188-0.90625-3.7188l-5.875-0.3125s-4.6973 7.2598-5.1875 7.75 3.0312 4.125 3.0312 4.125 2.3676 0.46875 3.25 0.46875 2.4246-3.1305 2.7188-3.7188 3.75-2.0625 3.75-2.0625l0.5625 1.1875-4.6875 4.3125 0.0937 5.7812 6.5625 3.1562s5.1887-2.4742 5.875-3.0625 2.375-2.4375 2.375-2.4375l-1.0938-3.0312s-2.8492-4.3278-3.4375-5.4062 1.2812-6.9473 1.2812-7.4375-0.28125-6.0938-0.28125-6.0938l-1.0937-1.2812-3.5312-0.875zm59.344 59.781-1.9688 0.59375-0.5625 0.5 0.40625 0.34375-0.21875 1.1875-0.78125 0.0312-0.3125 1.9375-0.375 0.84375 0.4375 0.5 0.40625 0.53125 0.65625-0.0937-0.53125 0.25-0.125-0.15625-0.5 0.0937v1.5625c0.0975-0.2122 1.2106-1.0662 1.8125-1.5938l0.9375-0.5 1-0.78125 1.1875-0.78125 1.5938-0.21875 1.875 0.1875 0.5625-0.21875 0.375-0.96875-1.7188-0.5-0.59375-0.40625-0.625-0.6875-0.3125-0.8125-0.125-0.75-1.8125 0.5625-0.6875-0.65625z" fill="#226e00" fill-rule="evenodd"/>
   <path d="m436.84 379.45-0.19609 2.9414-1.1765 3.4316-2.353 0.0981s-0.19608-2.8433-0.19608-3.3335v-3.3335l1.7647-1.4707 1.4706 0.78436 0.68629 0.88239z" fill="#21811b" fill-rule="evenodd"/>
   <path d="m498.0473,404.64018-1.19636.33284-.28552.0468 .28497.7254 .64627.78345 .8639.0992 .78702-.005 .68989-.55532 .97599-.43286 .58591-.45188-.0307-.0813-1.24839-.38635-.71385.0927-1.35922-.16819z" fill="#21811b" fill-rule="evenodd"/>
   <a transform="matrix(1.9271 .30976 -.30974 1.9272 -43.795 66.129)" fill="#537e1f">
    <path d="m302.86362,126.39125-1.14062.48438-.13142.30481 .6967.0548 .40533.0158 .59591-.0419 .0741-.20859 .0312-.35938 .35938-.51562 .20312-.5625-.46875.29687-.625.53125z" fill="#537e1f" fill-rule="evenodd"/>
   </a>
   <a transform="matrix(1.5782 -.06881 .0688 1.5782 -428.01 228.57)" fill="#629a28"/>
   <path d="m488.61 242.48 5.6863 0.6863 1.0784 3.9218-3.4314 3.4316-5.3922-1.7648s-5.8824-2.255-6.1765-2.9413 1.7647-3.8237 1.7647-3.8237l3.9216-0.29413 2.549 0.78436z" fill="#bee86d" fill-rule="evenodd"/>
   <path d="m333.75 287.41 5.3008 0.22653 4.111 2.0556 2.0555 0.84642 1.2091 3.7484 0.96729 2.7811 2.5391-3.6275 4.3528-3.8694v-4.1112s3.1437-0.48367 3.2646 0.12085 1.6928 4.9576 2.2973 5.6831 3.2646 2.902 3.2646 2.902l3.6273-2.5393 1.33-4.1112-3.8692-2.902-1.6928-2.1765 4.9574 3.0229 4.2319 3.2648s0.84637-1.5719 0.48364-2.0556-2.5391-3.2648-2.5391-3.2648l1.6928-2.2974 3.7483-1.451 5.441-5.0785 0.60456-5.5622 5.0783-4.353 4.2319-2.2974 3.9901-5.5622s-0.12085 3.5066-1.0882 4.2321-5.9246 6.2877-5.9246 6.2877l-0.24182 5.3204 7.1338-3.9903s8.8265-4.7158 9.552-4.7158 7.9801-4.8367 7.9801-4.8367l8.5847-6.2877 5.1992-3.7484s4.8364-2.1765 5.8038-1.8138 5.3201 0.36275 5.3201 0.96734-2.1764 3.8694-2.1764 3.8694-5.6828 3.7484-7.2547 4.7158-6.6501 5.5622-6.6501 5.5622l-7.0128 6.0459-9.0684 1.8138-3.3855 2.2974s-5.0783 4.1112-5.5619 4.7158-3.2646 5.5622-3.2646 5.5622-2.781 3.0229-3.0228 3.6275 0.60455 4.2321 0.60455 4.2321l5.5619-1.0882 10.036-4.5949 7.2547-4.7158 7.8592 2.7811 6.4083 0.48368 3.7482 0.48367 7.0129-9.6734 9.4311-6.5296 8.9474-4.4739 1.5718-5.3204-1.5718-6.8923-3.5064-6.1668 0.72548-8.5851-1.33-7.0132 6.4083-3.2648 7.6174-2.5393 9.4311-0.24183 10.882 0.48367 8.5847-3.5066 8.5847 2.2974s0.84638 4.5949 3.0228 5.0785 8.7056 0.36274 9.3102 1.0882 5.9246 6.8923 5.9246 6.8923l6.6501 5.804 4.8364 3.1438-5.9246 1.0883 0.72546 4.353s-2.66 2.5393-2.66 3.1438-4.9574-1.5719-4.9574-1.5719l-9.552 0.60459-9.0684 0.36275 0.72547 4.1112s5.3201-0.12085 6.1665-0.24183 10.157-0.24184 10.157-0.24184-0.60456 5.4413-0.48364 6.4086 4.4737 6.5296 4.4737 6.5296l-4.9574 1.8138-5.5619 2.902s0.12085 2.4184 0.36274 2.902 1.8137 4.2321 1.8137 4.2321l-9.552 1.451-2.9019-5.3204 2.781-1.6928 1.4509-7.1341-3.5064-5.0785-4.9574 2.0556 1.9346 0.96734 0.12085 3.1438-2.5391 4.353-0.12084 3.5066v4.1112l0.48365 3.7484 4.3528 3.0229 0.72547 3.1438-4.2319 1.8138h-5.8038l-8.8265-3.1438-9.1893-3.8694-10.157 4.9576-2.2973 4.353-6.1665 7.255-7.0128 6.1668-5.3201 3.8694-1.8137 3.1439 0.72547 3.7484-1.33 3.9903 2.5391 0.7255 3.5064-3.6275 2.4182-1.6928-0.36274 4.9576 1.5718 6.6504 3.6273 0.60458 3.8692-3.1438-1.6928-4.9576 3.9901-1.9347-0.72546-4.1112-0.12084-3.9903 4.3528-3.5066 4.8364-5.3204 1.9346 1.451-4.3528 5.3204-1.5718 4.1112s2.1764 4.9576 2.6601 5.1994 3.7482 0.48367 3.7482 0.48367l-1.0882 3.1439 1.9346 4.8367-3.5064 0.7255-2.9019-2.2974-2.66 3.7484-0.24182 3.9903-6.4083 1.3301h-10.64s-2.0555-4.9576-2.9019-4.1112-7.4965 5.1994-7.4965 5.1994l-8.101 5.0785-6.2874 6.4086s-5.8038 1.3301-5.8038 2.0556-0.36273 8.5852-0.36273 8.5852l-2.2973 4.5948-3.3855 2.7811-5.1992-2.5393-5.441-0.72552-1.6928 3.3857-5.3201 9.3106-0.72546 5.4413 4.2319 5.5622 4.8364 3.3857 6.2874-0.12085 2.9019-7.9806 5.9246-7.8596 5.8037-3.5066 2.1764-2.1765 5.9246-2.4184 5.3201-0.12084 5.1992 4.9576 4.3528 6.4086 1.2091 3.7484 3.7483 3.0229 2.8153 1.7664 0.96568 2.4658-0.35939 1.8464-1.9574 2.4511-3.6241-1.1112-2.2093 2.1471 3.8988 3.1602 1.1633-1.3465 1.2059-1.7418 4.0064-2.5164 2.0489-1.134c0.84526 0.62858-1.6988-1.0025 2.5358 1.8857l1.6895-0.83345-2.232-3.5687-3.0554-2.5033-5.8037-9.6734-5.441-7.255-2.781-4.353 3.6274-1.6928 6.892 8.4642 4.3528 6.2877 5.9246 3.5066v3.6275l0.9673 4.4739 1.0882 3.7484 0.12085 3.5066 4.5946 2.7811 5.0783-2.0556-0.99787-8.9479c-0.27194-1.1689-1.0872-1.5226-0.81578-3.5066l5.6828-3.6275 1.4509-3.6275 3.1437-2.902v-6.0459l4.7155-3.3857 7.1338-1.2092 2.5391-3.0229 8.4638-3.1438 2.9019-1.0883-5.3201 5.0786-1.0882 1.3301-4.111 0.12085-2.781 1.2092s-1.6928 1.3301-0.96729 1.8138 4.7156 0.48367 4.7156 0.48367l6.6501 0.24184 5.4704 0.78101 6.0228 1.6895 5.4478 3.0295 0.61073 3.1701 2.6404 4.0263 7.6994 8.8236s-9.7549 4.961-10.118 5.5656-14.679 5.2583-14.679 5.2583l-0.53593 4.9739-1.8334 5.1243-5.6828 3.8694-9.0683 2.902-7.9802 0.72549-9.9147-2.7811-7.3756-2.1765-3.5064 5.5622-4.5946 0.96734-11.124-8.2224-9.4311-6.2877 0.36274-6.7714-2.9019-6.6505-21.28 1.9347-8.4638 1.2092-3.1437 1.451-4.111-2.4183-4.2319-1.3301s-3.9901 3.6275-4.7155 4.1112-6.4083 5.6831-6.4083 5.6831l-1.5718 6.7714-6.4083 3.1438-12.938 10.641-3.8692 10.036 0.72548 8.2224-1.6928 13.905 2.6601 7.8596 6.2874 14.268s7.8592 5.9249 8.5847 6.1668 8.5847 4.5948 8.5847 4.5948l17.895 2.4184 9.9147 2.2974 4.5946 5.6831 5.9247 2.2974 5.9246 0.36275 3.8692 3.2648-2.0555 6.5295-5.1992 4.8367-1.9346 3.8694 6.2874 4.4739 5.8037 6.2877 1.8137 6.8923 2.2973 5.4413-2.2973 4.9576-0.12085 8.1015 2.781 6.0459s9.1893 6.5295 9.7938 7.0132 9.3102 9.3106 9.3102 9.3106l0.72547 4.9576 13.3 1.9347 12.575-0.48367s5.9246-0.60458 7.0128-0.60458 10.519-4.1112 10.519-4.1112l5.6828-10.52 2.5391-9.1897 7.9801-3.0229 5.8038-6.4086 1.0882-15.719 0.36273-9.4316 8.8265-9.0688 10.277-10.883 6.1665-7.255 7.4965-15.961 7.3756-8.9479 0.84636-7.9806-5.3201 3.5066-15.96 8.706-11.245-2.6602-13.3-12.817-7.9801-12.696-10.519-13.906-5.1992-8.827-1.5719-4.2321 6.1665-0.48367 4.3528 6.2877s5.5619 6.1668 5.5619 6.6505 6.0456 8.827 6.2874 9.5525 6.6501 9.0688 6.6501 9.0688l9.552 9.7943 2.1764 5.925 9.4311-2.5393 16.323-10.762 12.212-11.85s3.0228-9.9152 3.1437-10.883 0.60455-6.4086 0.60455-6.4086l-8.7056-3.7484-0.36274-2.1765-3.5064 4.1112-4.7155 4.5949-3.7482-3.7484 0.12084-3.1438-3.1437 0.12084-0.24182 4.2321-2.0555-2.0556-0.36274-2.6602-6.771-4.5949-0.60456-5.5622 3.5064-0.48367 3.9901 4.7158 5.3201 4.4739 6.6501-4.1112 5.9246 0.36274s2.781 1.9347 3.1437 2.6602 12.938-5.6831 12.938-5.6831l6.5292-3.2648s6.771-0.60459 7.0129 0.36275 2.2973 4.353 2.2973 4.9576 3.9901 0.96734 3.9901 0.96734l5.3201-0.72549 4.111 10.278 7.8592 20.314h6.4083l0.48365-19.71 2.781-23.821 2.4182-14.631 2.781-4.8367 6.8919 3.8694 8.8265 13.301 0.24183 6.6504-4.4737 14.631 1.8137 6.8923 0.60457 4.7158 0.24181 8.827 0.48365 8.2224 3.6064 4.4739s5.9246-16.213 7.1762-41.323c2.4557-49.267-12.234-77.581-12.234-77.581-10.538-24.256-14.574-30.472-13.901-28.867l-15.722-15.468s-7.4965-7.376-7.4965-7.8596-14.026-14.268-14.026-14.268l-13.421-11.85-7.9801-3.3857-4.111 1.451-4.3528-3.0229-5.1025-3.8339-12.671-9.467 5.1814-2.3119s-12.235-6.312-18.159-8.3676-13.427-5.2541-28.262-8.0272c-14.341-2.6807-27.806-2.694-35.57-2.8327l-14.045 0.77954s-12.817 1.6256-18.398 2.7695c0 0-2.4514 0.40443-14.502 3.5435-12.254 3.7192-20.06 6.9608-20.06 6.9608-13.824 6.4492-16.639 7.9227-21.009 10.498-7.6172 4.4883-14.75 9.4436-14.75 9.4436s-5.3643 3.7375-12.237 9.5064c-2.9076 2.4407-8.9902 7.8508-8.9902 7.8508l-10.074 10.681-6.4293 7.5307-0.67796 0.72063z" fill="#226e00" fill-rule="evenodd"/>
   <a transform="matrix(1.5782 -.06881 .0688 1.5782 -418.51 240.24)" fill="#226e00">
    <path d="m567.75708,113.16087 1.53821.31796 .63746-.27831 .56884.2201 1.13195.30231 .44108-.31889 .10134-.49162 3.32122-1.87636 3.29727-.10441 .78291-.48744 .36.0744 .009.61704 .666.411 .56311.0822 .44782-.35168 .48465,1.12532 1.03482.11138 1.22807.6639 .48055-.34491 .90183.42559 2.23286-.73446 1.69612.2139 2.44227-1.75051 .49196-.0692 .40835-.32566 1.01455.20971 .25823-.42503 .65456.13529 .49454.58062 .55636.115 .55791.93543 .3267,1.22933 1.69196.89646-.0504.74135-.16106.61596-.28991.24763 .28934.91407 .54427,3.15375 .84208.54992 .3818.79652-.15432.58317-.85198-.005-.39064-.42245 .0284,1.26816-13.26621,4.27976-1.92359-.14469-.37024-.24165-.42548-.088-.19379.6092-.52678.4037-.37144-.35014-.27219-.50049 .0312-.81365 .52107-.54155 .19848-.30071-.72004-.1488-.34287.33916-.12731.45209-.51898.20026-.79584-.6087-.69404-.1093-.96217.86044-.5481.67264-.56521.25907-.38133.19453-.3995-.0484-.98497.30896-.92991-.12386-.40205-.69817-.54184-.35119-1.6322-1.0208-1.41616.0832-.47332,1.30318-1.05045.29544-.8982.0536-.77663-.53642-.22387-.90054-.19634-.0406-.23121.29393-.32623-.23828-.0701-.32204-.49094-.10147-.32261.24087-.0868.25542-.48627.20705-.0363-.48592-.56523.25904-.76732.0806 .17924-.373 .59796-.25231 .55744-.0556 .48053-.34491-1.01561-.0391-.77408.11338-.15477-.40789 .46028-.24657-.0509-.2497-.56206-.25287-.0306-.34805-.3309-.54679 .23794-.32671-.0556-.55821-.69975-.24716-.56882-.22009-.5486-.3184 .27069-.31995 .18239-.88493 .22909.0474 .29142.57278 .0374.31528 .43896.0224 .008-.20343-.29246-.40216 .0811-.39328 .32939-.27365-.15478-.40788-.21921-.59205 .12053-.41932 .19277-.43855-.94732.0434-.59923-.0726 .25563-1.07482 1.49233-1.28049 .57093-.1212 .32158-.0702 .49558.40999 .4356.0388 .18314-.47469 .35716.005 .24389.30669 1.74343-.0155 .44859.0586-.18803-.32932-.16833-.34235 1.23903-.0514 .58338-.0161-.38388-.45524-.66132-.10251-.21011-.47056 .16963-.40919-.0655-.0135 5e-005,.0002z" fill="#226e00" fill-rule="evenodd"/>
   </a>
   <path d="m546.16 542.4-5.2942 3.9218-3.7255 0.1961-2.549 1.9609-0.78431 3.3335 5.4902-0.39216-3.1373 2.3531s-4.5098 0.78436-4.5098 1.5687-0.58823 3.7257-0.58823 4.51 0.39215 6.2748 1.1765 6.2748 5.0981-1.1765 6.0785-0.98045 7.0589-1.1765 7.0589-1.1765 0.39215-3.9218 0.39215-4.7062 0.39217-4.9022 1.9608-5.6866 4.1177-3.3335 4.902-4.314 2.9412-4.314 2.353-5.2944-0.58823-4.9022-0.58823-4.9022l-2.353-2.157s-4.1177 0-4.1177 1.1766-1.7647 4.51-1.7647 4.314z" fill="#226e00" fill-rule="evenodd"/>
   <path transform="translate(-482.31 184.36)" d="m952.38 110.91-8.0938 3.6875-9.5625 9.0938-8.125 5.625-0.96875 4.1875-0.75 4.4062 1 1.25 7.125-6.1562 8.3438-11.031 11.031-11.062zm-48.594 23.312-2.2188 1.25-0.75 3.6875 1.7188 7.0938-4.9062 5.6562-2.1875 1.9688 0.46875 3.4375 4.6875 3.1875 0.71875-7.375 3.4375-8.3438-0.96875-10.562zm-7.625 8.375-4.1562 0.46875-4.4375 5.9062 2.9375 2.9375 5.1562-4.4062 0.5-4.9062zm29.719 6.875-15.219 8.5938-6.4062 8.3438-4.9062 1.7188-1.7188 12.031-6.125 3.9062 1.9688 0.75 8.3438-5.1562 5.875-5.6562 14-4.6562 8.8438-9.0938 12.281-8.3438-15.219 1.9688-1.7188-4.4062zm-34.375 34.594-2.4688-0.96875-0.1875 0.0937 2.6562 0.875zm-2.6562-0.875-6.4375-2.0625-5.875 8.8438-1.7188 7.125 3.1875 4.6562 3.1875-11.781 4.6562-5.1562 3-1.625z" fill="url(#p)"/>
   <path transform="translate(-482.31 184.36)" d="m971.18 233.01-7.9861 0.34722-13.889-2.7778-4.1667 5.2083-10.069-0.34722-19.097-14.583 2.7778-7.6389-4.1667-5.9028-31.944 6.25-6.25-4.8611-7.6389 7.6389-4.8611 10.069-15.625 11.458-5.2083 20.139 2.4306 19.792 10.069 13.889 32.639 12.153 16.319 5.9028 12.5 5.5556-3.8194 13.542 7.6389 22.569 2.0833 7.9861-2.0833 14.931s12.847-3.125 13.542-4.5139 1.0417-16.319 1.0417-16.319l20.833-26.389-1.7361-27.778 15.625-18.75-2.0833-26.389 5.9028-20.486 19.444-5.5556 5.5556-8.6806 7.9861-10.069 4.5139-14.931 9.0278-6.25-12.847 2.7778-8.6806 4.8611-10.764-1.3889-6.5972-0.34723-9.0278 3.8194-12.5 3.4722 2.7778 7.9861-0.69444 2.7778 7.6389 2.0833 5.5556-2.0833 4.8611 2.7778 10.764-4.1667 3.4722 3.8194-2.0833 3.125-2.4306 9.0278-18.75 6.25z" fill="url(#o)"/>
   <path transform="translate(-482.31 184.36)" d="m964.24 106.28 12.5 4.8611 8.6806-2.0833 1.0417-3.8194-3.8194-4.1667-1.7361-2.4306-0.34722-7.9861 3.125-5.5556-0.34723-4.5139 2.0833-0.34722 1.3889 4.5139-3.125 7.2917 2.7778 6.9444 7.9861-0.34722 4.8611-2.4306-1.3889-6.25 8.3333-3.4722 1.0417-3.8194-5.5556-4.8611 1.7361-5.2083 25.347 2.4306-5.9027 11.806s-17.014 14.236-18.403 15.278-21.181 13.889-21.181 13.889l-17.361 11.458-15.972 0.34722 5.5556-6.5972 8.6806-14.931z" fill="url(#n)"/>
   <path transform="matrix(.27151 0 0 .28245 386.26 300.61)" d="m670.95 352c0 178.36-144.59 322.95-322.95 322.95s-322.95-144.59-322.95-322.95 144.59-322.95 322.95-322.95 322.95 144.59 322.95 322.95z" fill="url(#b)" opacity=".34457"/>
   <path transform="matrix(.88235 0 0 .8 175.88 120.38)" d="m402.78 318.2c0 15.341-10.571 27.778-23.611 27.778s-23.611-12.437-23.611-27.778 10.571-27.778 23.611-27.778 23.611 12.437 23.611 27.778z" fill="#fff" filter="url(#g)"/>
  </g>
  <path transform="matrix(11.456 2.8512 -2.8512 11.456 -3305 -4256.4)" d="m359.24 316.84a6.4397 6.4397 0 1 1 -12.879 0 6.4397 6.4397 0 1 1 12.879 0z" stroke="#000" stroke-linecap="round" stroke-width="1.2"/>
  <path transform="matrix(9.9513 2.4767 -2.4767 9.9513 -2917.9 -3663.1)" d="m370.85 319.88a16.415 16.162 0 1 1 -32.83 0 16.415 16.162 0 1 1 32.83 0z" fill="none" stroke="#000" stroke-linecap="round" stroke-width="1.2"/>
  <g enable-background="new">
   <g transform="matrix(.81136 0 0 .8572 -462.82 24.318)">
    <path transform="translate(11.555 1.8245)" d="m564.38 441.46c0 123.77-100.34 224.11-224.11 224.11s-224.11-100.34-224.11-224.11 100.34-224.11 224.11-224.11 224.11 100.34 224.11 224.11z" fill="url(#e)"/>
    <path transform="translate(11.555 1.8245)" d="m564.38 441.46c0 123.77-100.34 224.11-224.11 224.11s-224.11-100.34-224.11-224.11 100.34-224.11 224.11-224.11 224.11 100.34 224.11 224.11z" fill="url(#m)"/>
    <path d="m351.84 234.56c-109.3 0-199.27 82.322-211.34 188.38 55.426-33.937 129.7-54.719 211.31-54.719 81.61 0 155.89 20.786 211.31 54.719-12.071-106.05-101.98-188.38-211.28-188.38z" fill="url(#d)"/>
    <path d="m351.84 274.56c-109.3 0-211.74 84.152-207.34 188.38 55.426-33.937 125.7-54.719 207.31-54.719 81.61 0 151.89 20.786 207.31 54.719 5.0043-103-97.983-188.38-207.28-188.38z" fill="#fff" fill-opacity=".40273" filter="url(#h)"/>
    <path d="m177.34 564.84c38.421 55.056 102.22 91.062 174.5 91.062 72.287 2e-5 136.09-35.994 174.5-91.062-47.253 30.092-108.07 48.188-174.5 48.188-66.415-1e-5 -127.24-18.103-174.5-48.188z" fill="url(#c)" filter="url(#i)"/>
   </g>
   <g transform="matrix(.81136 0 0 .8572 -462.82 24.318)" fill-rule="evenodd">
    <path d="m370.98 650.97 13.38-8.5143-6.374-6.6664 17.929-37.121c-1.1969-10.768-0.18329-20.588 3.0408-30.408l-9.7306-6.0816-16.175-2.4326-2.3624-12.818-9.368-7.5435-0.67838-10.093-11.555-10.292 1.8479-10.947 8.8535-2.7484-10.701-10.631 10.339-7.9061 8.5143-1.8245-7.5903-8.7833 11.847-9.4616c2.0778-8.5533 5.1031-15.843 10.023-23.765l-0.29237-12.116 4.2103-0.31579 4.5729-9.1224 10.07-1.5087 15.204 3.0408-0.31579 5.4501 15.45-1.4619 19.531 8.1751 7.9061 7.298 12.771 0.60816c7.049 5.4342 11.709 10.158 12.044 12.294 0.3402 2.1708 3.4357 7.2614 9.242 12.032l-3.0408 10.339 8.5143 7.9061 9.1224 0.60816 4.2572 4.8653h10.947l1.2163 7.298h8.5143v12.771c-15.851 14.245-20.675 45.692-28.607 54.103-5.9078 6.265-15.524 8.9822-26.128 11.579l-6.1284 14.619c-9.7346 8.4714-10.676 13.345-17.52 19.099-2.7737 2.3318-6.0816 3.3332-10.07 4.5261l-2.1637-7.8359 2.4326-3.649-6.6898 3.649-3.649 7.9061-0.63157 6.0114-13.017 8.8535-16.491 2.1637-1.5321 6.643c-10.67 4.4092-12.499 7.8711-12.116 10.386l-18.853 1.8245z" fill="#226e00"/>
    <path d="m341.68 438.79c-3.1579-6.9473-13.59-9.858-18.947-15.158l-1.8947-11.368c-6.9473 0.94735-12.947 1.2631-19.894-0.94736l-2.2105-7.263-12-6.9473-7.5788 6.6315c-16.842-1.7894-15.368-7.6841-34.421-19.579l-0.94735-13.263c-3.4736-8.3157-5.9999-16.631-13.263-24l0.31579-9.1578-5.0526-2.8421v17.684l7.5788 10.421 0.31579 8.842c-10.631-14.421-13.684-27.263-13.895-42.315-4.0828-9.9813-3.4736-6.9473-3.4736-6.9473l0.31579-10.737c3.2631-13.052 7.4736-20.421 20.21-33.473 2-12.421 10.631-17.579 16.105-25.894 12.21-7.5788 37.052-18 64.104-20.842l42.947-2.5263 18.947 6.3157 2.2105 8.2104-6.6315-4.421-12.947-0.63157-2.8421-5.0526-11.052 0.63157 0.31579 5.0526-15.473 0.31578-13.579 6.3157c0.73683 6.6315 18.526 7.8946 28.736 12.316l6.6315 6.3157-1.8947-8.2104 4.421-4.421-3.7894-4.1052-0.94736-7.2631c11.895 0.73683 22.842 3.3684 25.263 7.8946l8.842-1.5789c8.842 9.0525 17.368 12.421 28.421 15.789 1.3684 6.6315 4.6315 9.4736 9.7893 11.368l-6.6315 1.8947-6.6315-3.4736-0.63158-8.2104-6.9473 5.0526-12-2.2105-5.9999 3.1578 9.7893-0.94736 5.6841 13.895-13.895 2.2105-4.421 4.7368 1.2631 5.3684-4.421 0.63157-4.1052 6.3157-4.421-2.8421-4.421 2.5263 3.4736 9.1578c-6.842 8.3157-20.316 16.631-23.368 28.736l7.263 9.1578-0.63157 10.737-4.7368 0.63157-5.3684-7.8946-0.31578-9.4736-15.473-8.5262c-8.6315 0.31578-14.421 1.2631-20.21 5.6841l-13.895-1.8947-15.158 12 3.7894 5.9999-5.0526 12.947 4.7368 12.631 7.8946 7.8946 14.842-3.1578 10.421-11.368 5.9999 0.31579-0.63157 7.8946-5.6841 5.0526v12l18.631-0.31578c0.73683 5.0526 4.6315 6.3157 6.9473 9.4736l-2.5263 16.421 5.6841 6.6315-1.5789 5.9999z" fill="#226e00"/>
    <path d="m348.94 323.53c-10.316-9.9999-17.025-17.005-36.947-18-19.538-0.95986-31.421 10.826-48.315 18-11.319 4.8066-27.368 7.9999-36.315 7.2631l-8.2104-10.737c-2.9473-11.368 9.5788-27.473 20.526-36.947l2.5263-12c6.5262-8.2104 13.308-15.868 22.421-20.842 10.889-5.9438 23.684-9.1578 41.684-13.263l26.21-3.1578-19.263 10.737 0.31578 6.6315 24 8.2104c5.5789 5.6841 10.526 10.421 16.737 11.368l8.842 0.31578-3.7894-11.052 6.9473-3.7894-5.9999-10.421 11.368 4.421 11.052-0.31579 9.1578 7.5788 0.31579 3.4736-9.7893 5.3684-1.8947 8.2104h11.052l0.94735 4.7368-12.631 6.6315-0.31578 7.8946c-5.7894 3.5789-13.019 2.5927-16.421 6.9473-2.6315 3.3684-0.84209 9.8946-0.31578 12.947l-13.895 9.7893z" fill="url(#k)"/>
    <path d="m377.05 543v-15.158l-16.421-10.105 6.3157-6.3157 0.63157-16.737 7.2631 0.31578-3.4736-22.421 6.6315-3.1578 19.894-38.21 6.6315 3.1578 25.263-3.1578 10.105 10.421 21.473 4.7368 14.526 9.1578 7.2631 12 3.1578 15.158 19.579 12 9.7893 0.63157 9.7893 13.895c-14.631 13.789-30.577 29.587-52.42 36.631-12.324 3.9743-26.96 3.7859-38.21 9.7893-10.645 5.6806-18.947 13.684-27.473 25.263l-4.421-16.737c-9.8946-5.7894-19.789-11.895-25.894-21.158z" fill="url(#j)"/>
   </g>
  </g>
  <path transform="matrix(.27151 0 0 .28245 -271.75 300.61)" d="m670.95 352a322.95 322.95 0 1 1 -645.89 0 322.95 322.95 0 1 1 645.89 0z" fill="url(#b)" opacity=".34457"/>
  <path transform="matrix(.88235 0 0 .8 -482.12 120.38)" d="m402.78 318.2a23.611 27.778 0 1 1 -47.222 0 23.611 27.778 0 1 1 47.222 0z" fill="#fff" filter="url(#g)"/>
  <path d="m394.69 229.22c-144.49 71.976-202.64 210.61-202.64 210.61 19.036-27.742 41.988-52.269 66.709-73.841-38.053 59.473-55.119 115.31-55.119 115.31l-27.167 36.057c3.2627 9.1053 37.198 24.321 48.224-8.8729 111.91-336.89 362.82-253.56 456.24-208.43 0.10829 0.0523 0.47297 0.40989 0.58089 0.46211 0.9202 0.98263 9.3127 3.8781 22.985 11.645-2.3035 20.325-13.932 141.34-110.71 226.45-61.486 54.068-187.26 54.206-290.44 50.087 0 0 130.22 25.781 246.5-9.1611 136.06-40.888 181.01-209.37 185.83-261.73 3.7057-1.4086 6.5533-3.3211 6.4825-3.3796-0.11324-0.0939 62.062-33.013 39.11-43.44-46.558-21.151-88.202-35.985-126.88-45.35-16.294-3.9454-31.865-6.6872-47.275-8.7735 55.205-10.07 93.773-13.468 96.965-15.058-0.17644-0.0726-0.18831-0.39474-0.58089-0.46211-5.5529-0.95263-41.506-10.736-97.925-13.782-84.628-4.5694-154.35 13.497-210.89 41.662z" fill-rule="evenodd" stroke="#000" stroke-width="1.0623"/>
  <path d="m-90.108 233.65c144.49 71.976 202.64 210.61 202.64 210.61-19.036-27.742-41.988-52.269-66.709-73.841 38.053 59.473 55.119 115.31 55.119 115.31l27.167 36.057c-3.2627 9.1053-37.198 24.321-48.224-8.8729-111.91-336.89-362.82-253.56-456.24-208.43-0.10829 0.0523-0.47297 0.40989-0.58089 0.46211-0.9202 0.98263-9.3127 3.8781-22.985 11.645 2.3035 20.325 13.932 141.34 110.71 226.45 61.486 54.068 187.26 54.206 290.44 50.087 0 0-130.22 25.781-246.5-9.1611-136.06-40.888-181.01-209.37-185.83-261.73-3.7057-1.4086-6.5533-3.3211-6.4825-3.3796 0.11324-0.0939-62.062-33.013-39.11-43.44 46.558-21.151 88.202-35.985 126.88-45.35 16.294-3.9454 31.865-6.6872 47.275-8.7735-55.205-10.07-93.773-13.468-96.965-15.058 0.17644-0.0726 0.18831-0.39474 0.58089-0.46211 5.5529-0.95263 41.506-10.736 97.925-13.782 84.628-4.5694 154.35 13.497 210.89 41.662z" fill-rule="evenodd" stroke="#000" stroke-width="1.0623"/>
 </g>
</svg>
